<svg width="129" height="130" viewBox="0 0 129 130" fill="none" xmlns="http://www.w3.org/2000/svg">
<g clip-path="url(#clip0_352_331)">
<path d="M128.395 64.807C128.395 29.3516 99.653 0.609375 64.1976 0.609375C28.7423 0.609375 0 29.3516 0 64.807C0 96.8499 23.4761 123.409 54.1668 128.224V83.3641H37.8666V64.807H54.1668V50.6635C54.1668 34.5739 63.7511 25.6866 78.4151 25.6866C85.439 25.6866 92.7857 26.9404 92.7857 26.9404V42.7391H84.6904C76.7156 42.7391 74.2285 47.6876 74.2285 52.7646V64.807H92.0333L89.1871 83.3641H74.2285V128.224C104.919 123.409 128.395 96.8499 128.395 64.807Z" fill="#1877F2"/>
<path d="M89.1916 83.3885L92.0379 64.8314H74.233V52.789C74.233 47.712 76.7201 42.7634 84.6949 42.7634H92.7902V26.9648C92.7902 26.9648 85.4435 25.7109 78.4196 25.7109C63.7556 25.7109 54.1713 34.5983 54.1713 50.6878V64.8314H37.8711V83.3885H54.1713V128.249C60.8181 129.289 67.5862 129.289 74.233 128.249V83.3885H89.1916Z" fill="white"/>
</g>
<defs>
<clipPath id="clip0_352_331">
<rect width="128.395" height="128.395" fill="white" transform="translate(0 0.609375)"/>
</clipPath>
</defs>
</svg>
