<svg width="129" height="130" viewBox="0 0 129 130" fill="none" xmlns="http://www.w3.org/2000/svg">
<g clip-path="url(#clip0_352_334)">
<path d="M99.9787 0.632812H29.2212C13.305 0.632812 0.402344 13.5355 0.402344 29.4517V100.209C0.402344 116.125 13.305 129.028 29.2212 129.028H99.9787C115.895 129.028 128.798 116.125 128.798 100.209V29.4517C128.798 13.5355 115.895 0.632812 99.9787 0.632812Z" fill="url(#paint0_linear_352_334)"/>
<path d="M44.892 22.8828H84.9183C85.8077 23.3275 87.1419 23.3275 88.0314 23.7723C91.9346 24.4048 95.5839 26.1135 98.5694 28.7061C101.555 31.2987 103.758 34.6726 104.931 38.4486C105.588 40.6245 106.035 42.8584 106.266 45.1196V84.2564C105.63 89.2165 103.798 93.9478 100.929 98.0432C98.467 100.895 95.3807 103.142 91.9097 104.607C88.4387 106.073 84.6766 106.718 80.9156 106.493H47.5604C41.6079 106.782 35.7551 104.884 31.1052 101.156C28.2776 98.7133 26.0462 95.6559 24.5816 92.218C23.117 88.7801 22.4581 85.0528 22.6552 81.3211V50.1896C22.5817 47.9567 22.7307 45.722 23.1 43.5186C23.549 38.9591 25.4238 34.6571 28.4576 31.224C31.4915 27.7909 35.5303 25.4014 39.9999 24.3949L44.892 22.8828ZM31.1052 65.1327V82.4774C30.9156 84.6862 31.2111 86.9096 31.971 88.9922C32.7309 91.0747 33.9368 92.966 35.5044 94.5335C37.0719 96.1011 38.9632 97.307 41.0457 98.0669C43.1282 98.8268 45.3517 99.1223 47.5604 98.9327C59.1236 99.3774 70.6867 99.3774 82.2498 98.9327C92.4788 98.9327 98.2603 92.7064 98.7051 82.4774C99.1498 70.9143 99.1498 59.3512 98.7051 47.788C98.8203 45.5967 98.4736 43.4057 97.6874 41.3571C96.9012 39.3084 95.6931 37.448 94.1415 35.8964C92.5899 34.3447 90.7294 33.1367 88.6808 32.3505C86.6322 31.5643 84.4411 31.2176 82.2498 31.3328C70.6867 30.8881 59.1236 30.8881 47.5604 31.3328C45.3517 31.1432 43.1282 31.4387 41.0457 32.1986C38.9632 32.9585 37.0719 34.1644 35.5044 35.732C33.9368 37.2995 32.7309 39.1908 31.971 41.2733C31.2111 43.3558 30.9156 45.5793 31.1052 47.788V65.1327Z" fill="white"/>
<path d="M43.2773 65.2999C43.2891 59.5239 45.5888 53.9878 49.6731 49.9035C53.7573 45.8193 59.2934 43.5196 65.0694 43.5078C70.8134 43.6216 76.2904 45.9541 80.3528 50.0165C84.4152 54.0789 86.7477 59.5559 86.8615 65.2999C86.8497 71.0759 84.55 76.6119 80.4657 80.6962C76.3815 84.7805 70.8454 87.0802 65.0694 87.0919C59.3254 86.9782 53.8484 84.6457 49.786 80.5833C45.7236 76.5209 43.3911 71.0439 43.2773 65.2999V65.2999ZM65.0694 51.5131C62.3682 51.4691 59.7154 52.2328 57.4509 53.7062C55.1865 55.1796 53.4136 57.2957 52.3595 59.7831C51.3054 62.2705 51.0181 65.0161 51.5344 67.6679C52.0506 70.3197 53.347 72.7569 55.2573 74.6672C57.1676 76.5775 59.6049 77.8739 62.2566 78.3902C64.9084 78.9064 67.654 78.6191 70.1414 77.565C72.6289 76.5109 74.7449 74.738 76.2183 72.4736C77.6917 70.2092 78.4554 67.5564 78.4115 64.8551C78.4115 61.3166 77.0058 57.923 74.5037 55.4209C72.0016 52.9187 68.6079 51.5131 65.0694 51.5131V51.5131Z" fill="white"/>
<path d="M81.9797 42.6447C81.9549 41.9372 82.0759 41.2321 82.3353 40.5733C82.5948 39.9146 82.987 39.3163 83.4876 38.8157C83.9882 38.3151 84.5865 37.9229 85.2452 37.6635C85.904 37.4041 86.609 37.283 87.3166 37.3079C88.7012 37.4015 90.0048 37.9939 90.9861 38.9751C91.9674 39.9564 92.5597 41.2601 92.6534 42.6447C92.6534 44.0601 92.0911 45.4176 91.0903 46.4184C90.0894 47.4193 88.732 47.9815 87.3166 47.9815C85.9012 47.9815 84.5437 47.4193 83.5429 46.4184C82.542 45.4176 81.9797 44.0601 81.9797 42.6447V42.6447Z" fill="white"/>
</g>
<defs>
<linearGradient id="paint0_linear_352_334" x1="-7.7808" y1="136.144" x2="143.429" y2="-12.8427" gradientUnits="userSpaceOnUse">
<stop stop-color="#FED576"/>
<stop offset="0.26" stop-color="#F47133"/>
<stop offset="0.61" stop-color="#BC3081"/>
<stop offset="1" stop-color="#4C63D2"/>
</linearGradient>
<clipPath id="clip0_352_334">
<rect width="128.395" height="128.395" fill="white" transform="translate(0.417969 0.609375)"/>
</clipPath>
</defs>
</svg>
