<svg width="129" height="130" viewBox="0 0 129 130" fill="none" xmlns="http://www.w3.org/2000/svg">
<g clip-path="url(#clip0_352_343)">
<path d="M64.4549 129.004C99.91 129.004 128.652 100.262 128.652 64.8064C128.652 29.3514 99.91 0.609375 64.4549 0.609375C28.9998 0.609375 0.257812 29.3514 0.257812 64.8064C0.257812 100.262 28.9998 129.004 64.4549 129.004Z" fill="#55ACEE"/>
<path d="M103.774 46.7661C100.974 48.0071 98.0027 48.8206 94.9605 49.1796C98.1654 47.263 100.564 44.2463 101.709 40.6918C98.6967 42.4791 95.4011 43.7382 91.9645 44.4145C90.5283 42.8828 88.7929 41.6626 86.8657 40.8293C84.9385 39.996 82.8607 39.5675 80.7611 39.5703C72.2881 39.5703 65.4162 46.4423 65.4162 54.9152C65.4162 56.118 65.5524 57.2887 65.8156 58.4124C53.0627 57.7727 41.7551 51.6641 34.1862 42.3775C32.8214 44.7194 32.1041 47.3822 32.108 50.0928C32.108 55.4153 34.8191 60.1141 38.9342 62.8652C36.4973 62.79 34.1139 62.1311 31.9844 60.9438L31.9833 61.1383C31.9833 68.5733 37.2749 74.7747 44.2933 76.1834C42.9761 76.5427 41.6167 76.724 40.2514 76.7224C39.2604 76.7224 38.3002 76.6274 37.3641 76.4489C39.3165 82.5438 44.9822 86.9806 51.6986 87.1053C46.2626 91.3718 39.5493 93.6854 32.639 93.674C31.4031 93.674 30.1786 93.6019 28.9805 93.4589C35.9954 97.969 44.1611 100.363 52.5008 100.354C80.7256 100.354 96.1609 76.9719 96.1609 56.6924C96.1609 56.0276 96.146 55.365 96.1163 54.7081C99.1217 52.5381 101.715 49.8485 103.774 46.7661V46.7661Z" fill="white"/>
</g>
<defs>
<clipPath id="clip0_352_343">
<rect width="128.395" height="128.395" fill="white" transform="translate(0.257812 0.609375)"/>
</clipPath>
</defs>
</svg>
