<svg width="130" height="130" viewBox="0 0 130 130" fill="none" xmlns="http://www.w3.org/2000/svg">
<path d="M122.815 0.609375H7.25961C5.55698 0.609375 3.92409 1.28574 2.72015 2.48968C1.51621 3.69362 0.839844 5.32651 0.839844 7.02914V122.585C0.839844 124.288 1.51621 125.92 2.72015 127.124C3.92409 128.328 5.55698 129.005 7.25961 129.005H122.815C124.518 129.005 126.151 128.328 127.355 127.124C128.559 125.92 129.235 124.288 129.235 122.585V7.02914C129.235 5.32651 128.559 3.69362 127.355 2.48968C126.151 1.28574 124.518 0.609375 122.815 0.609375V0.609375ZM101.752 56.6218C101.052 56.6902 100.35 56.7266 99.6464 56.7309C95.8376 56.7359 92.0874 55.7918 88.735 53.9838C85.3825 52.1759 82.5333 49.5612 80.4449 46.3759V81.6396C80.4462 86.7965 78.9181 91.8379 76.0539 96.1261C73.1897 100.414 69.1181 103.757 64.354 105.731C59.59 107.705 54.3475 108.222 49.2897 107.216C44.2319 106.21 39.586 103.727 35.9395 100.081C32.2931 96.4344 29.81 91.7884 28.8042 86.7306C27.7985 81.6728 28.3153 76.4303 30.2893 71.6663C32.2634 66.9022 35.6059 62.8306 39.8942 59.9664C44.1825 57.1022 49.2238 55.5741 54.3807 55.5754C54.9264 55.5754 55.4528 55.6268 55.992 55.6589V68.4984C54.1959 68.2808 52.3743 68.4329 50.6391 68.9452C48.9039 69.4574 47.2917 70.3192 45.9018 71.4774C44.5118 72.6356 43.3734 74.0658 42.5565 75.6801C41.7395 77.2944 41.2613 79.0587 41.1513 80.8646C41.0412 82.6705 41.3017 84.4799 41.9165 86.1814C42.5314 87.883 43.4878 89.4408 44.7268 90.7593C45.9658 92.0777 47.4614 93.1288 49.1216 93.8479C50.7817 94.5671 52.5714 94.9392 54.3807 94.9414C57.9511 95.006 61.4043 93.6667 63.9975 91.2116C66.5907 88.7565 68.1167 85.3816 68.2474 81.813L68.3758 21.9102H80.6632C81.2242 27.2479 83.6439 32.2185 87.499 35.9527C91.3541 39.687 96.3992 41.9471 101.752 42.3378V56.6218Z" fill="black"/>
</svg>
