<svg width="129" height="130" viewBox="0 0 129 130" fill="none" xmlns="http://www.w3.org/2000/svg">
<path d="M118.878 0.610273H10.1283C8.90588 0.593295 7.69207 0.817291 6.5562 1.26947C5.42033 1.72165 4.38467 2.39315 3.50834 3.24563C2.63202 4.0981 1.93221 5.11486 1.44888 6.23782C0.965542 7.36078 0.708151 8.56796 0.691406 9.79041V119.824C0.708151 121.046 0.965542 122.253 1.44888 123.376C1.93221 124.499 2.63202 125.516 3.50834 126.368C4.38467 127.221 5.42033 127.892 6.5562 128.345C7.69207 128.797 8.90588 129.021 10.1283 129.004H118.878C120.1 129.021 121.314 128.797 122.45 128.345C123.586 127.892 124.621 127.221 125.498 126.368C126.374 125.516 127.074 124.499 127.557 123.376C128.04 122.253 128.298 121.046 128.315 119.824V9.79041C128.298 8.56796 128.04 7.36078 127.557 6.23782C127.074 5.11486 126.374 4.0981 125.498 3.24563C124.621 2.39315 123.586 1.72165 122.45 1.26947C121.314 0.817291 120.1 0.593295 118.878 0.610273V0.610273ZM39.402 108.076H20.143V50.2985H39.402V108.076ZM29.7725 42.2098C27.1165 42.2098 24.5692 41.1546 22.6911 39.2765C20.813 37.3984 19.7578 34.8511 19.7578 32.1951C19.7578 29.539 20.813 26.9917 22.6911 25.1136C24.5692 23.2355 27.1165 22.1804 29.7725 22.1804C31.1829 22.0204 32.6112 22.1602 33.9638 22.5905C35.3164 23.0208 36.5629 23.7319 37.6216 24.6774C38.6803 25.6228 39.5274 26.7812 40.1074 28.0767C40.6874 29.3722 40.9872 30.7757 40.9872 32.1951C40.9872 33.6145 40.6874 35.0179 40.1074 36.3134C39.5274 37.6089 38.6803 38.7673 37.6216 39.7128C36.5629 40.6582 35.3164 41.3693 33.9638 41.7996C32.6112 42.23 31.1829 42.3697 29.7725 42.2098V42.2098ZM108.863 108.076H89.6039V77.0686C89.6039 69.3008 86.8434 64.2292 79.846 64.2292C77.6804 64.2451 75.5717 64.9244 73.804 66.1755C72.0363 67.4267 70.6946 69.1896 69.9597 71.2267C69.4573 72.7356 69.2396 74.3246 69.3177 75.913V108.011H50.0587C50.0587 108.011 50.0587 55.4985 50.0587 50.2343H69.3177V58.3873C71.0673 55.3515 73.6119 52.8505 76.6775 51.1537C79.7431 49.4568 83.2135 48.6285 86.715 48.7578C99.5544 48.7578 108.863 57.0392 108.863 74.8217V108.076Z" fill="#2F80ED"/>
</svg>
